<?xml version="1.0" encoding="utf-8"?>
<!-- Generator: Adobe Illustrator 23.0.1, SVG Export Plug-In . SVG Version: 6.00 Build 0)  -->
<svg version="1.1" id="Layer_1" xmlns="http://www.w3.org/2000/svg" xmlns:xlink="http://www.w3.org/1999/xlink" x="0px" y="0px"
	 width="102px" height="102px" viewBox="0 0 102 102" enable-background="new 0 0 102 102" xml:space="preserve">
<path fill="#4097EE" d="M101,51c0,27.6-22.4,50-50,50S1,78.6,1,51S23.4,1,51,1S101,23.4,101,51z"/>
<path fill="#FFFFFF" d="M27.9,27.6C39.7,15.8,58.5,15.2,71,25.8c-1,2.5-0.5,5.5,1.5,7.6c2.7,2.7,7.2,2.7,9.9,0
	c2.7-2.7,2.7-7.2,0-9.9c-1.9-1.9-4.6-2.5-7-1.7C60.6,8.6,37.9,9.1,23.7,23.3S8.9,60.2,22,75.2c-0.8,2.4-0.2,5.1,1.7,7
	c2.7,2.7,7.2,2.7,9.9,0c2.7-2.7,2.7-7.2,0-9.9c-2-2-5-2.6-7.5-1.6C15.5,58.2,16.1,39.4,27.9,27.6z M86.5,35.3
	c1.3,3.2,2.2,6.5,2.6,9.8l-2,0.3l-4,0.5l-2,0.3c-0.4-2.7-1.1-5.3-2.1-7.8l1.8-0.8l3.7-1.5L86.5,35.3z M89.1,55.3
	c-0.4,3.4-1.3,6.7-2.6,9.8l-1.8-0.8L81,62.9l-1.8-0.8c1-2.5,1.7-5.1,2.1-7.8l2,0.3l4,0.5L89.1,55.3z M81.5,74
	c-1,1.3-2.1,2.6-3.4,3.8c-1.2,1.2-2.5,2.3-3.8,3.4l-1.2-1.6l-2.4-3.2l-1.2-1.6c1.1-0.8,2.1-1.7,3-2.7c1-1,1.9-2,2.7-3l1.6,1.2
	l3.2,2.4L81.5,74z M65.5,86.2c-3.2,1.3-6.5,2.2-9.8,2.6l-0.3-2l-0.5-4l-0.3-2c2.7-0.3,5.3-1,7.8-2.1l0.8,1.8l1.5,3.7L65.5,86.2z
	 M45.5,88.8c-3.3-0.4-6.6-1.3-9.8-2.6l0.8-1.8l1.5-3.7l0.8-1.8c2.5,1,5.1,1.7,7.8,2.1l-0.3,2l-0.5,4L45.5,88.8z"/>
</svg>
