<?xml version="1.0" encoding="utf-8"?>
<!-- Generator: Adobe Illustrator 17.0.0, SVG Export Plug-In . SVG Version: 6.00 Build 0)  -->
<!DOCTYPE svg PUBLIC "-//W3C//DTD SVG 1.1//EN" "http://www.w3.org/Graphics/SVG/1.1/DTD/svg11.dtd">
<svg version="1.1" id="Layer_1" xmlns="http://www.w3.org/2000/svg" xmlns:xlink="http://www.w3.org/1999/xlink" x="0px" y="0px"
	 width="53.135px" height="53.137px" viewBox="0 0 53.135 53.137" enable-background="new 0 0 53.135 53.137" xml:space="preserve">
<g>
	<path fill="#FFFFFF" d="M53.135,40.312c0,7.052-5.77,12.825-12.825,12.825H12.825C5.771,53.137,0,47.364,0,40.312V12.825
		C0,5.773,5.771,0,12.825,0H40.31c7.055,0,12.825,5.773,12.825,12.825V40.312z"/>
	<g>
		<g>
			<g>
				<path fill="#272626" d="M19.39,23.809h-3.327l-1.321-3.438H8.686l-1.247,3.438H4.196l5.896-15.143h3.233L19.39,23.809z
					 M13.759,17.818l-2.087-5.621l-2.045,5.621H13.759z"/>
				<path fill="#272626" d="M21.022,8.666h6.052c1.197,0,2.091,0.051,2.682,0.149c0.589,0.102,1.115,0.308,1.58,0.626
					c0.464,0.316,0.851,0.736,1.161,1.264c0.311,0.526,0.465,1.119,0.465,1.771c0,0.709-0.191,1.362-0.573,1.953
					c-0.383,0.592-0.9,1.035-1.554,1.333c0.921,0.268,1.631,0.726,2.127,1.374c0.496,0.648,0.743,1.407,0.743,2.282
					c0,0.688-0.159,1.358-0.477,2.01c-0.323,0.651-0.76,1.169-1.316,1.559c-0.552,0.389-1.235,0.629-2.047,0.719
					c-0.511,0.055-1.739,0.09-3.69,0.103h-5.152V8.666z M24.078,11.185v3.503h2.005c1.191,0,1.932-0.017,2.22-0.053
					c0.525-0.061,0.936-0.242,1.235-0.541c0.3-0.301,0.449-0.694,0.449-1.183c0-0.467-0.128-0.849-0.387-1.142
					c-0.259-0.291-0.642-0.47-1.151-0.533c-0.304-0.033-1.174-0.051-2.614-0.051H24.078z M24.078,17.207v4.05h2.829
					c1.104,0,1.804-0.032,2.1-0.095c0.452-0.081,0.822-0.282,1.112-0.602c0.285-0.322,0.426-0.75,0.426-1.286
					c0-0.456-0.11-0.843-0.33-1.158c-0.222-0.316-0.539-0.548-0.955-0.692c-0.417-0.148-1.32-0.218-2.711-0.218H24.078z"/>
				<path fill="#272626" d="M45.978,18.243l2.964,0.938c-0.455,1.654-1.211,2.881-2.268,3.685c-1.059,0.799-2.399,1.201-4.023,1.201
					c-2.013,0-3.665-0.687-4.959-2.061c-1.296-1.374-1.944-3.252-1.944-5.634c0-2.521,0.653-4.477,1.954-5.871
					c1.301-1.396,3.012-2.095,5.133-2.095c1.852,0,3.358,0.55,4.514,1.644c0.689,0.648,1.205,1.577,1.55,2.788l-3.027,0.723
					c-0.179-0.783-0.552-1.403-1.12-1.858c-0.568-0.455-1.261-0.682-2.071-0.682c-1.124,0-2.034,0.401-2.731,1.208
					c-0.702,0.806-1.049,2.11-1.049,3.916c0,1.912,0.344,3.276,1.032,4.091c0.688,0.812,1.583,1.218,2.685,1.218
					c0.812,0,1.511-0.259,2.097-0.774C45.3,20.161,45.723,19.351,45.978,18.243z"/>
			</g>
		</g>
		<path fill="#272626" d="M25.167,45.696c-0.707,0-1.413-0.269-1.949-0.805l-6.338-6.336c-1.072-1.074-1.072-2.817,0-3.895
			c1.08-1.076,2.822-1.076,3.898,0l4.389,4.389l10.446-10.449c1.078-1.075,2.82-1.075,3.895,0c1.076,1.076,1.076,2.82,0,3.895
			L27.113,44.891C26.575,45.427,25.87,45.696,25.167,45.696z"/>
	</g>
</g>
</svg>
