<?xml version="1.0" encoding="utf-8"?>
<!-- Generator: Adobe Illustrator 17.0.0, SVG Export Plug-In . SVG Version: 6.00 Build 0)  -->
<!DOCTYPE svg PUBLIC "-//W3C//DTD SVG 1.1//EN" "http://www.w3.org/Graphics/SVG/1.1/DTD/svg11.dtd">
<svg version="1.1" id="Layer_1" xmlns="http://www.w3.org/2000/svg" xmlns:xlink="http://www.w3.org/1999/xlink" x="0px" y="0px"
	 width="38px" height="38px" viewBox="0 0 38 38" enable-background="new 0 0 38 38" xml:space="preserve">
<g>
	<path fill="#595B61" d="M18.986,37.272c-9.726,0-17.703-7.64-18.243-17.234h2.679c0.536,8.118,7.312,14.558,15.564,14.558
		c8.6,0,15.598-6.997,15.598-15.597S27.585,3.402,18.986,3.402c-4.275,0-8.268,1.712-11.242,4.821L7.042,8.957l3.665,3.668H2.673
		V4.586l2.453,2.456l0.734-0.76C9.325,2.7,13.986,0.728,18.986,0.728c10.074,0,18.272,8.196,18.272,18.272
		C37.257,29.075,29.06,37.272,18.986,37.272z"/>
	<g>
		<g>
			<rect x="17.505" y="8.107" fill="#595B61" width="2.781" height="12.771"/>
		</g>
		<g>
			<rect x="17.505" y="18.097" fill="#595B61" width="10.305" height="2.781"/>
		</g>
	</g>
</g>
</svg>
