<?xml version="1.0" encoding="utf-8"?>
<!-- Generator: Adobe Illustrator 20.1.0, SVG Export Plug-In . SVG Version: 6.00 Build 0)  -->
<svg version="1.1" id="Layer_1" xmlns="http://www.w3.org/2000/svg" xmlns:xlink="http://www.w3.org/1999/xlink" x="0px" y="0px"
	 width="2048px" height="1536px" viewBox="0 0 2048 1536" enable-background="new 0 0 2048 1536" xml:space="preserve">
<g id="XMLID_1037_">
	<polygon id="XMLID_5574_" fill="#2FC0D7" points="2048,0 1701.2,261 2048,600.1 	"/>
	<polygon id="XMLID_5575_" fill="#279DB7" points="1701.2,261 1770.2,1026.1 2048,600.1 	"/>
	<polygon id="XMLID_5576_" fill="#1F727F" points="1770.2,1026.1 2048,1236.1 2048,600.1 	"/>
	<polygon id="XMLID_5577_" fill="#2597AA" points="2048,0 1701.2,261 1287.2,0 	"/>
	<polygon id="XMLID_5578_" fill="#279DB7" points="2048,1536 1770.2,1026.1 2048,1236.1 	"/>
	<polygon id="XMLID_5579_" fill="#2FC0D7" points="1383.2,1536 1770.2,1026.1 2048,1536 	"/>
	<polygon id="XMLID_5573_" fill="#2FC0D7" points="1701.2,261 1389.2,558.1 879.1,222 1287.2,0 	"/>
	<polygon id="XMLID_5580_" fill="#2597AA" points="1770.2,1026.1 1218.1,885.1 1389.2,558.1 1701.2,261 	"/>
	<polygon id="XMLID_1049_" fill="#279DB7" points="1383.2,1536 1365.2,1209.1 1218.1,885.1 1770.2,1026.1 	"/>
	<polygon id="XMLID_1047_" fill="#279DB7" points="1389.2,558.1 879.1,222 840.1,855.1 1218.1,885.1 	"/>
	<polygon id="XMLID_1045_" fill="#2FC0D7" points="1365.2,1209.1 1218.1,885.1 840.1,855.1 1059.1,1260.1 	"/>
	<polygon id="XMLID_1044_" fill="#2FC0D7" points="1383.2,1536 1365.2,1209.1 1059.1,1260.1 861.1,1536 	"/>
	<polygon id="XMLID_1043_" fill="#2597AA" points="609.1,1536 840.1,855.1 1059.1,1260.1 861.1,1536 	"/>
	<polygon id="XMLID_1042_" fill="#279DB7" points="879.1,222 432.1,0 1287.2,0 	"/>
	<polygon id="XMLID_1041_" fill="#2FC0D7" points="840.1,855.1 561.1,651.1 432.1,0 879.1,222 	"/>
	<polygon id="XMLID_1433_" fill="#2FC0D7" points="267.1,1536 738.1,1170.1 609.1,1536 	"/>
	<polygon id="XMLID_1120_" fill="#2597AA" points="840.1,855.1 318.1,1029.1 243,591.1 561.1,651.1 	"/>
	<polygon id="XMLID_1449_" fill="#279DB7" points="738.1,1170.1 0,1278.1 318.1,1029.1 840.1,855.1 	"/>
	<polygon id="XMLID_2540_" fill="#1F727F" points="267.1,1536 3.5,1536 0,1278.1 738.1,1170.1 	"/>
	<polygon id="XMLID_4258_" fill="#1F727F" points="318.1,1029.1 0,1278.1 0,315 243,591.1 	"/>
	<polygon id="XMLID_1040_" fill="#279DB7" points="561.1,651.1 432.1,0 3.5,0.4 0,315 243,591.1 	"/>
	<g id="XMLID_1038_" opacity="0.42">
		<polygon id="XMLID_4357_" fill="#2FC0D7" points="0,1536 346.8,1275 0,935.9 		"/>
		<polygon id="XMLID_4355_" fill="#279DB7" points="346.8,1275 277.8,509.9 0,935.9 		"/>
		<polygon id="XMLID_4354_" fill="#1F727F" points="277.8,509.9 0,299.9 0,935.9 		"/>
		<polygon id="XMLID_4350_" fill="#2597AA" points="0,1536 346.8,1275 760.8,1536 		"/>
		<polygon id="XMLID_4345_" fill="#279DB7" points="0,0 277.8,509.9 0,299.9 		"/>
		<polygon id="XMLID_4344_" fill="#2FC0D7" points="664.8,0 277.8,509.9 0,0 		"/>
		<polygon id="XMLID_4321_" fill="#2FC0D7" points="346.8,1275 658.8,977.9 1168.9,1314 760.8,1536 		"/>
		<polygon id="XMLID_4319_" fill="#2597AA" points="277.8,509.9 829.9,650.9 658.8,977.9 346.8,1275 		"/>
		<polygon id="XMLID_4261_" fill="#279DB7" points="664.8,0 682.8,326.9 829.9,650.9 277.8,509.9 		"/>
		<polygon id="XMLID_3848_" fill="#1F727F" points="658.8,977.9 1168.9,1314 1207.9,680.9 829.9,650.9 		"/>
		<polygon id="XMLID_3847_" fill="#2FC0D7" points="682.8,326.9 829.9,650.9 1207.9,680.9 988.9,275.9 		"/>
		<polygon id="XMLID_3844_" fill="#2FC0D7" points="664.8,0 682.8,326.9 988.9,275.9 1186.9,0 		"/>
		<polygon id="XMLID_3816_" fill="#2597AA" points="1438.9,0 1207.9,680.9 988.9,275.9 1186.9,0 		"/>
		<polygon id="XMLID_3814_" fill="#279DB7" points="1168.9,1314 1615.9,1536 760.8,1536 		"/>
		<polygon id="XMLID_3776_" fill="#2FC0D7" points="1207.9,680.9 1486.9,884.9 1615.9,1536 1168.9,1314 843.1,846.1 		"/>
		<polygon id="XMLID_3768_" fill="#2FC0D7" points="1780.9,0 1309.9,365.9 1438.9,0 		"/>
		<polygon id="XMLID_3741_" fill="#2597AA" points="1207.9,680.9 1729.9,506.9 1805,944.9 1486.9,884.9 		"/>
		<polygon id="XMLID_2170_" fill="#279DB7" points="1309.9,365.9 2048,257.9 1729.9,506.9 1207.9,680.9 		"/>
		<polygon id="XMLID_2165_" fill="#1F727F" points="1780.9,0 2044.5,0 2048,257.9 1309.9,365.9 		"/>
		<polygon id="XMLID_2138_" fill="#1F727F" points="1729.9,506.9 2048,257.9 2048,1221 1805,944.9 		"/>
		<polygon id="XMLID_1039_" fill="#279DB7" points="1486.9,884.9 1615.9,1536 2044.5,1535.6 2048,1221 1805,944.9 		"/>
	</g>
	<rect id="XMLID_4360_" x="3.4" opacity="0.32" fill="#FFFFFF" enable-background="new    " width="2041.1" height="1536"/>
</g>
</svg>
