<?xml version="1.0" encoding="utf-8"?>
<!-- Generator: Adobe Illustrator 20.1.0, SVG Export Plug-In . SVG Version: 6.00 Build 0)  -->
<svg version="1.1" id="Layer_1" xmlns="http://www.w3.org/2000/svg" xmlns:xlink="http://www.w3.org/1999/xlink" x="0px" y="0px"
	 width="52px" height="52px" viewBox="0 0 52 52" enable-background="new 0 0 52 52" xml:space="preserve">
<g>
	<g>
		<ellipse transform="matrix(0.8296 -0.5584 0.5584 0.8296 -10.0877 18.9495)" fill="#FEBB12" cx="26" cy="26" rx="25" ry="25"/>
		<path fill="#F99C1C" d="M46.8,12L5.2,40C13,51.4,28.5,54.5,40,46.8S54.5,23.5,46.8,12z"/>
		
			<ellipse transform="matrix(0.8296 -0.5584 0.5584 0.8296 -10.0877 18.9495)" fill="none" stroke="#FFFFFF" stroke-miterlimit="10" cx="26" cy="26" rx="20.8" ry="20.8"/>
		<g enable-background="new    ">
			<path fill="#FFFFFF" d="M22.6,29v9.1h-3.1V14.8h8.6c2.5,0,4.5,0.7,6,2s2.2,3,2.2,5.2c0,2.3-0.7,4-2.1,5.2S30.7,29,28,29H22.6z
				 M22.6,26.5h5.5c1.6,0,2.9-0.4,3.8-1.2c0.9-0.8,1.3-1.9,1.3-3.4c0-1.4-0.4-2.5-1.3-3.3c-0.9-0.8-2.1-1.3-3.6-1.3h-5.7V26.5z"/>
		</g>
	</g>
</g>
</svg>
