<?xml version="1.0" encoding="utf-8"?>
<!-- Generator: Adobe Illustrator 19.0.0, SVG Export Plug-In . SVG Version: 6.00 Build 0)  -->
<svg version="1.1" id="Layer_1" xmlns="http://www.w3.org/2000/svg" xmlns:xlink="http://www.w3.org/1999/xlink" x="0px" y="0px"
    width="62px" height="62px" viewBox="-274 366 62 62" enable-background="new -274 366 62 62" xml:space="preserve">
<g id="XMLID_3387_">
	<circle id="XMLID_12_" fill="#447BEA" cx="-243" cy="397" r="30.4"/>
    <g id="XMLID_3388_">
		<g id="XMLID_3390_">
			<path id="XMLID_3391_" fill="#FFFFFF" d="M-243,424.7c-15.3,0-27.7-12.4-27.7-27.7s12.4-27.7,27.7-27.7
				c15.3,0,27.7,12.4,27.7,27.7S-227.7,424.7-243,424.7z M-243,371.2c-14.3,0-25.9,11.6-25.9,25.9s11.6,25.9,25.9,25.9
				c14.3,0,25.9-11.6,25.9-25.9S-228.7,371.2-243,371.2z"/>
		</g>
        <path id="XMLID_3394_" fill="#FFFFFF" d="M-242.9,414.5L-242.9,414.5c-1.1,0-2.1-0.9-2.1-2.1v-21.9c0-1.1,0.9-2.1,2.1-2.1l0,0
			c1.1,0,2.1,0.9,2.1,2.1v21.9C-240.8,413.6-241.7,414.5-242.9,414.5z"/>
        <path id="XMLID_3395_" fill="#FFFFFF" d="M-242.9,386.1L-242.9,386.1c-1.1,0-2.1-0.9-2.1-2.1v-0.8c0-1.1,0.9-2.1,2.1-2.1l0,0
			c1.1,0,2.1,0.9,2.1,2.1v0.8C-240.8,385.1-241.7,386.1-242.9,386.1z"/>
	</g>
</g>
</svg>
