<?xml version="1.0" encoding="utf-8"?>
<!-- Generator: Adobe Illustrator 23.0.1, SVG Export Plug-In . SVG Version: 6.00 Build 0)  -->
<svg version="1.1" id="Layer_1" xmlns="http://www.w3.org/2000/svg" xmlns:xlink="http://www.w3.org/1999/xlink" x="0px" y="0px"
	 width="102px" height="102px" viewBox="0 0 102 102" enable-background="new 0 0 102 102" xml:space="preserve">
<path fill="#9362FF" d="M101,51c0,27.6-22.4,50-50,50S1,78.6,1,51S23.4,1,51,1
	S101,23.4,101,51z"/>
<path fill="#FFFFFF" d="M32,38c6.1,0,11-4.9,11-11c0-6.1-4.9-11-11-11c-6.1,0-11,4.9-11,11C21,33.1,25.9,38,32,38z M32,18.4
	c4.8,0,8.6,3.9,8.6,8.6c0,4.8-3.9,8.6-8.6,8.6c-4.8,0-8.6-3.9-8.6-8.6C23.4,22.2,27.2,18.4,32,18.4z"/>
<path fill="#FFFFFF" d="M32.9,29.6c0.2,0.2,0.5,0.3,0.8,0.3c0.3,0,0.6-0.1,0.8-0.3c0.5-0.5,0.5-1.2,0-1.7l-1.4-1.4v-5.3
	c0-0.7-0.5-1.2-1.2-1.2c-0.7,0-1.2,0.5-1.2,1.2V27c0,0.3,0.1,0.6,0.3,0.8L32.9,29.6z"/>
<path fill="#FFFFFF" d="M80.7,59.3h-7.3c-1-1.4-2.5-2.4-4.2-2.8l-5.2-1.1c2.1-1.4,3.5-3.9,3.5-6.7v-2.9v-1.3v-0.3c0-4.4-3.6-8-8-8
	s-8,3.6-8,8v0.3v1.3v2.9c0,2.8,1.4,5.2,3.5,6.7l-5.2,1.1c-0.2,0-0.4,0.1-0.7,0.2v-9.8c0-0.7-0.5-1.2-1.2-1.2h-8.1
	c-0.7,0-1.2,0.5-1.2,1.2c0,0.7,0.5,1.2,1.2,1.2h6.9v16.6h-8.1v-5.9c0-2-1.6-3.6-3.6-3.6c-2,0-3.6,1.6-3.6,3.6v5.9h-8.1V48h6.9
	c0.7,0,1.2-0.5,1.2-1.2c0-0.7-0.5-1.2-1.2-1.2h-8.1c-0.7,0-1.2,0.5-1.2,1.2v19c0,0.7,0.5,1.2,1.2,1.2h9.3v2.3h-0.1
	c-2,0-3.7,1.7-3.7,3.7v0.6h-5.5c-0.7,0-1.2,0.5-1.2,1.2v8.1c0,0.7,0.5,1.2,1.2,1.2h58.5c0.7,0,1.2-0.5,1.2-1.2v-8.1V70v-4.8v-4.8
	C81.9,59.8,81.3,59.3,80.7,59.3z M73.4,73.5h-6.8v-2.4h12.8v2.4H73.4z M79.5,68.8H66.7v-2.4h12.8V68.8z M79.5,64H66.7v-2.4h6
	c0,0,0,0,0,0c0,0,0,0,0,0h6.8V64z M53.8,44.1c0-3.1,2.5-5.6,5.6-5.6c3,0,5.4,2.3,5.6,5.2L62.3,42c-0.5-0.3-1.1-0.2-1.5,0.3
	c-1.2,1.4-3,2.3-4.8,2.3h-2.2v-0.2L53.8,44.1z M53.8,46.9h2.2c2.2,0,4.4-0.9,6-2.4l3.2,1.9v2.2c0,3.1-2.5,5.6-5.6,5.6
	c-3.1,0-5.6-2.5-5.6-5.6L53.8,46.9z M61.3,56.5l-1.9,5l-1.9-5c0.6,0.1,1.2,0.2,1.9,0.2C60.1,56.7,60.7,56.6,61.3,56.5z M47.9,67
	c0.7,0,1.2-0.5,1.2-1.2v-6.6c0.4-0.2,0.8-0.3,1.2-0.4l5.2-1.1l2.9,7.7c0.2,0.5,0.6,0.8,1.1,0.8c0.5,0,0.9-0.3,1.1-0.8l2.9-7.7
	l5.2,1.1c0.5,0.1,0.9,0.3,1.3,0.5h-4.4c-0.7,0-1.2,0.5-1.2,1.2v4.8V70v3.6H46.6V67L47.9,67z M44.2,67v6.5h-1.8v-0.6
	c0-2-1.7-3.7-3.7-3.7h-0.1V67H44.2z M33.8,58.7c0-0.7,0.5-1.2,1.2-1.2s1.2,0.5,1.2,1.2v10.6h-2.4V58.7z M30,72.9
	c0-0.7,0.6-1.3,1.3-1.3h1.3h4.8h1.3c0.7,0,1.3,0.6,1.3,1.3v0.6H30V72.9z M79.5,81.6H23.4v-5.7h56.1V81.6z"/>
<path fill="#FFFFFF" d="M34.2,45.9c-0.2,0.2-0.3,0.5-0.3,0.8c0,0.3,0.1,0.6,0.3,0.8c0.2,0.2,0.5,0.3,0.8,0.3c0.3,0,0.6-0.1,0.8-0.3
	c0.2-0.2,0.3-0.5,0.3-0.8c0-0.3-0.1-0.6-0.3-0.8c-0.2-0.2-0.5-0.3-0.8-0.3C34.7,45.6,34.4,45.7,34.2,45.9z"/>
<g>
</g>
<g>
</g>
<g>
</g>
<g>
</g>
<g>
</g>
<g>
</g>
<g>
</g>
<g>
</g>
<g>
</g>
<g>
</g>
<g>
</g>
<g>
</g>
<g>
</g>
<g>
</g>
<g>
</g>
</svg>
